<svg xmlns="http://www.w3.org/2000/svg" viewBox="0 0 199.19 199.19"><g id="Testo"><path d="M47.57,87.93l5.61,4.42-10,12a38.43,38.43,0,0,1-9-3.53,60.17,60.17,0,0,1-9.55-6.14,73.18,73.18,0,0,1-13.13-13A35.43,35.43,0,0,1,4.85,68.13a27.61,27.61,0,0,1,.39-13.91,38.94,38.94,0,0,1,8-14.27,38,38,0,0,1,13.26-10.6,32.28,32.28,0,0,1,14.26-2.93,39,39,0,0,1,14.4,3.32A61.69,61.69,0,0,1,68.85,38q3.15,2.49,5.54,4.68a53.33,53.33,0,0,1,4.12,4.19,42.81,42.81,0,0,1,3,3.92q1.31,1.9,2.46,3.83l-10.92,13-5.61-4.42,6.7-8,0-2.49A34,34,0,0,0,72,49.39a35.89,35.89,0,0,0-6.17-5.74A36.86,36.86,0,0,0,55.87,38a24.92,24.92,0,0,0-10.53-1.59,26,26,0,0,0-10.69,3.27,37.18,37.18,0,0,0-10.4,8.93q-9.13,10.89-7.73,21.79T29.41,90.31a35,35,0,0,0,5.65,3.76,12.09,12.09,0,0,0,4.13,1.42L41.63,95Z"/><path d="M150.12,66.18a2.43,2.43,0,0,1-.64,2.15,3.3,3.3,0,0,1-1.2.91,2.89,2.89,0,0,1-1.3.2,3.67,3.67,0,0,1-1.34-.4,6.65,6.65,0,0,1-1.34-.87,4.83,4.83,0,0,1-1.82-2.49,2.22,2.22,0,0,1,.53-2,3.75,3.75,0,0,1,1.28-1,3.1,3.1,0,0,1,1.33-.24,3.6,3.6,0,0,1,1.35.37,6.53,6.53,0,0,1,1.32.87A4.73,4.73,0,0,1,150.12,66.18Z"/><path d="M163.82,50.72A4.73,4.73,0,0,0,162,48.21a6.53,6.53,0,0,0-1.32-.87,3.6,3.6,0,0,0-1.35-.37,3,3,0,0,0-1.33.25,3.48,3.48,0,0,0-1.27,1,2.24,2.24,0,0,0-.54,2A4.8,4.8,0,0,0,158,52.71a6.8,6.8,0,0,0,1.33.88,3.84,3.84,0,0,0,1.35.39,2.74,2.74,0,0,0,1.29-.2,3.19,3.19,0,0,0,1.2-.91A2.4,2.4,0,0,0,163.82,50.72Zm0,0A4.73,4.73,0,0,0,162,48.21a6.53,6.53,0,0,0-1.32-.87,3.6,3.6,0,0,0-1.35-.37,3,3,0,0,0-1.33.25,3.48,3.48,0,0,0-1.27,1,2.24,2.24,0,0,0-.54,2A4.8,4.8,0,0,0,158,52.71a6.8,6.8,0,0,0,1.33.88,3.84,3.84,0,0,0,1.35.39,2.74,2.74,0,0,0,1.29-.2,3.19,3.19,0,0,0,1.2-.91A2.4,2.4,0,0,0,163.82,50.72ZM190,4.16,99.72,111.65a28.26,28.26,0,0,0-.8-8.21,36.14,36.14,0,0,0-6.29-13A60.43,60.43,0,0,0,81.55,79.2c-2.11-1.65-4.06-3.09-5.86-4.29a55.21,55.21,0,0,0-5.08-3.06A46.26,46.26,0,0,0,66,69.76c-1.47-.56-2.93-1.08-4.38-1.55l-10.92,13,5.61,4.42,6.7-8,2.51-.55a37.12,37.12,0,0,1,3.79,1.46,37,37,0,0,1,7.07,4.68,36.32,36.32,0,0,1,7.76,8.27,22.93,22.93,0,0,1,3.76,9.66A23.65,23.65,0,0,1,86.8,112a35.81,35.81,0,0,1-6.9,11.69q-9.14,10.89-20.44,11.78t-22.79-8.16a33.58,33.58,0,0,1-5-4.59,11.46,11.46,0,0,1-2.28-3.62v-2.42l5.94-7.07-5.61-4.42-10,11.94a36.34,36.34,0,0,0,5.4,7.8,60,60,0,0,0,8.15,7.81,75.27,75.27,0,0,0,15.81,9.79,38.1,38.1,0,0,0,15,3.54,30.16,30.16,0,0,0,14-3.21,40.39,40.39,0,0,0,12.78-10.54c.71-.85,1.37-1.69,2-2.53L128.76,87c5.09-3.65,11.93-.87,15.54.43,6,2.15,7.76,3.62,11.79,7.38,16.34,15.24,7.1,41.11-7.3,58.26-22,26.18-53.15,40-53.15,40l.81,2s38.12-8.77,60.16-35c24.95-29.73,20.12-59.07,22.09-91.29,1-16.11,1.78-27.33,4-36.48S188.47,16,195.05,8.17Zm-38.78,63A6.92,6.92,0,0,1,150,69a7.21,7.21,0,0,1-1.83,1.54,4.48,4.48,0,0,1-1.81.59,4.08,4.08,0,0,1-1.78-.28,6.42,6.42,0,0,1-1.73-1,5.41,5.41,0,0,1-1.34-1.59,3.87,3.87,0,0,1-.47-1.73,4.51,4.51,0,0,1,.38-1.82,6.93,6.93,0,0,1,1.19-1.82,7.24,7.24,0,0,1,1.79-1.5,4.69,4.69,0,0,1,1.83-.6A4.1,4.1,0,0,1,148,61a5.91,5.91,0,0,1,1.73,1,5.44,5.44,0,0,1,1.34,1.59,4,4,0,0,1,.46,1.75A4.3,4.3,0,0,1,151.18,67.19Zm5.56-6.07L155.37,60l-.05,0a4.3,4.3,0,0,1,.26,1.24,5.34,5.34,0,0,1-.09,1.25l-1.24,1.41-1.22-1,1.58-1.78a2.86,2.86,0,0,0,.12-.88,4.7,4.7,0,0,0-.21-1l-4.22-3.51L149.17,57l-.68-.56,3.46-3.9.68.57-1,1.08L157.43,59l1-1.08.68.56Zm8.14-9.39a6.92,6.92,0,0,1-1.18,1.81,7.35,7.35,0,0,1-1.82,1.54,4.57,4.57,0,0,1-1.82.59,4.08,4.08,0,0,1-1.78-.28,6.17,6.17,0,0,1-1.73-1,5.54,5.54,0,0,1-1.34-1.58,3.9,3.9,0,0,1-.46-1.74,4.33,4.33,0,0,1,.37-1.82,7.19,7.19,0,0,1,1.19-1.82,7.1,7.1,0,0,1,1.8-1.5,4.65,4.65,0,0,1,1.82-.6,4.1,4.1,0,0,1,1.79.25,5.91,5.91,0,0,1,1.73,1,5.2,5.2,0,0,1,1.34,1.6,3.94,3.94,0,0,1,.47,1.74A4.47,4.47,0,0,1,164.88,51.73Zm5.66-5.91a9.89,9.89,0,0,1-1.28,1.26,5.48,5.48,0,0,1-1.15.72l-1.76-1.47L167.51,45l1.28,1.06a2.93,2.93,0,0,0,.9-.78,3.72,3.72,0,0,0,.73-1.11,2.19,2.19,0,0,0,.15-1.13,2.7,2.7,0,0,0-.51-1.19,6.86,6.86,0,0,0-1.26-1.3,4.38,4.38,0,0,0-1.17-.7,3.47,3.47,0,0,0-1.3-.23A3.17,3.17,0,0,0,165,40a3.89,3.89,0,0,0-1.24,1,3.41,3.41,0,0,0-.48.68,5.13,5.13,0,0,0-.28.6,2.29,2.29,0,0,0-.16.51c0,.16-.05.32-.07.47l-.87-.08a3.64,3.64,0,0,1,.14-1.58,4.66,4.66,0,0,1,1.07-1.85,6.68,6.68,0,0,1,1.76-1.47,4.58,4.58,0,0,1,1.82-.59,4,4,0,0,1,1.8.25,6.13,6.13,0,0,1,1.73,1,4.43,4.43,0,0,1,1.84,3.33A5.27,5.27,0,0,1,170.54,45.82ZM162,48.21a6.53,6.53,0,0,0-1.32-.87,3.6,3.6,0,0,0-1.35-.37,3,3,0,0,0-1.33.25,3.48,3.48,0,0,0-1.27,1,2.24,2.24,0,0,0-.54,2A4.8,4.8,0,0,0,158,52.71a6.8,6.8,0,0,0,1.33.88,3.84,3.84,0,0,0,1.35.39,2.74,2.74,0,0,0,1.29-.2,3.19,3.19,0,0,0,1.2-.91,2.4,2.4,0,0,0,.64-2.15A4.73,4.73,0,0,0,162,48.21Z"/><path d="M134.76,66a3.75,3.75,0,0,1-.1,1.66,5,5,0,0,1-1.07,2,7.31,7.31,0,0,1-1.82,1.59,4.75,4.75,0,0,1-1.9.66,4.19,4.19,0,0,1-1.91-.22,6.63,6.63,0,0,1-1.85-1,4.7,4.7,0,0,1-2-3.46,5.59,5.59,0,0,1,1.53-3.82A12.28,12.28,0,0,1,126.93,62a6.14,6.14,0,0,1,1.2-.78l1.89,1.5-1.19,1.41L127.46,63a3.1,3.1,0,0,0-.93.84,4.21,4.21,0,0,0-.74,1.19,2.2,2.2,0,0,0-.13,1.19,2.8,2.8,0,0,0,.57,1.24,7.21,7.21,0,0,0,1.36,1.34,4.44,4.44,0,0,0,1.25.71,3.6,3.6,0,0,0,1.37.21,3.32,3.32,0,0,0,1.37-.38,4.23,4.23,0,0,0,1.28-1,4.14,4.14,0,0,0,.5-.73c.11-.23.2-.44.28-.63a3.16,3.16,0,0,0,.15-.54,4.43,4.43,0,0,0,.06-.51Z"/><path d="M133.07,62.37a5.53,5.53,0,0,1-1.45-1.65,4.15,4.15,0,0,1-.54-1.83,4.63,4.63,0,0,1,.35-1.93A7.22,7.22,0,0,1,132.62,55a7.51,7.51,0,0,1,1.89-1.67,4.47,4.47,0,0,1,1.89-.66,4.26,4.26,0,0,1,1.89.24A6.67,6.67,0,0,1,140.13,54a5.74,5.74,0,0,1,1.45,1.63,4.06,4.06,0,0,1,.53,1.82,4.57,4.57,0,0,1-.34,1.92A8.05,8.05,0,0,1,138.71,63a4.68,4.68,0,0,1-1.9.67,4.26,4.26,0,0,1-1.9-.21A6.44,6.44,0,0,1,133.07,62.37Zm1.49-1.77a7,7,0,0,0,1.41.89,3.62,3.62,0,0,0,1.43.35,3,3,0,0,0,1.4-.29,3.8,3.8,0,0,0,1.32-1,2.36,2.36,0,0,0,.5-2.16,5,5,0,0,0-2-2.57,7.09,7.09,0,0,0-1.42-.89,4.12,4.12,0,0,0-1.43-.38,2.91,2.91,0,0,0-1.36.24,3.46,3.46,0,0,0-1.24,1,2.57,2.57,0,0,0-.62,2.28A5,5,0,0,0,134.56,60.6Z"/><path d="M153.21,46.06,150,49.92l-.73-.58.88-1-3.66-2.9a4.63,4.63,0,0,0-2.11-1,2,2,0,0,0-1.81.88,3.4,3.4,0,0,0-.56.91,2.94,2.94,0,0,0-.2.94,2.79,2.79,0,0,0,.08.91,3.08,3.08,0,0,0,.34.81l4.48,3.55.88-1,.73.58L145,55.76l-.73-.58,1-1.17-6.19-4.9-1,1.16-.72-.57,2.38-2.82,1.51,1.2,0,0A3.8,3.8,0,0,1,142,44a7.5,7.5,0,0,1,1.2-1.15,2.83,2.83,0,0,1,1.28-.52,3.22,3.22,0,0,1,1.46.21,6.44,6.44,0,0,1,1.72,1l3.89,3.08,1-1.17Z"/><path d="M146.05,39.43l1.18-1.4-1.82-1.44,1.4-1.65,1.82,1.44,2.2-2.61.94.74-2.21,2.61,4.25,3.37a3.18,3.18,0,0,0,1.51.78,1.25,1.25,0,0,0,1.07-.52,2.6,2.6,0,0,0,.55-1,6.76,6.76,0,0,0,.2-.93l.9,0a2.86,2.86,0,0,1,0,.62,4.4,4.4,0,0,1-.19.78,5.27,5.27,0,0,1-.37.87,4.88,4.88,0,0,1-.58.87A3.19,3.19,0,0,1,155,43.25a2.79,2.79,0,0,1-2.14-.76l-4.69-3.72L147,40.17Z"/><path d="M156.47,29.69a2.79,2.79,0,0,0-.1.92,4.3,4.3,0,0,0,.24,1l4.53,3.59,1.16-1.37.73.58-3.54,4.18-.73-.58,1-1.16L153.56,32l-1,1.16-.73-.58,2.39-2.81,1.47,1.16.05-.06a4.75,4.75,0,0,1-.31-1.29,6,6,0,0,1,.06-1.33l1.28-1.51,1.31,1Z"/><path d="M161.57,28.64A5.71,5.71,0,0,1,160.11,27a4.23,4.23,0,0,1-.53-1.83,4.63,4.63,0,0,1,.35-1.93,7,7,0,0,1,1.19-1.92A7.66,7.66,0,0,1,163,19.64a4.56,4.56,0,0,1,1.9-.66,4.2,4.2,0,0,1,1.88.24,6.57,6.57,0,0,1,1.85,1.06,5.74,5.74,0,0,1,1.45,1.63,4.19,4.19,0,0,1,.53,1.82,4.43,4.43,0,0,1-.35,1.92,7.05,7.05,0,0,1-1.2,2,7.6,7.6,0,0,1-1.85,1.63,4.79,4.79,0,0,1-1.91.66,4.24,4.24,0,0,1-1.89-.21A6.44,6.44,0,0,1,161.57,28.64Zm1.49-1.77a6.76,6.76,0,0,0,1.41.89,3.62,3.62,0,0,0,1.43.35,3,3,0,0,0,1.4-.29,3.68,3.68,0,0,0,1.31-1.05,2.34,2.34,0,0,0,.51-2.16,5.11,5.11,0,0,0-2-2.57,7.33,7.33,0,0,0-1.43-.89,4.07,4.07,0,0,0-1.42-.38,2.89,2.89,0,0,0-1.36.24,3.46,3.46,0,0,0-1.24,1,2.54,2.54,0,0,0-.62,2.28A5,5,0,0,0,163.06,26.87Z"/></g></svg>